Patient4_TMGait_0pt2_02_left_23_EMG.mot
version=1
nRows=33
nColumns=33
inDegrees=no
endheader
time	1LAddLong	2LGlutMax	3LGlutMed	4LIliopsoas	5LSemiMemb	6LBicFemLong	7LRecFem	8LVastMed	9LVastLat	10LGasMed	11LTibAnt	12lTibPost	13LPeroneusLong	14LSol	15LExtDigLong	16LFlexDigLong	17RAddLong	18RGlutMax	19RGlutMed	20RIliopsoas	21RSemiMemb	22RBicFemLong	23RRecFem	24RVastMed	25RVastLat	26RGasMed	27RTibAnt	28RTibPost	29RPeroneusLong	30RSol	31RExtDigLong	32RFlexDigLong
51.83	0.00061	-0.002136	0.067596	0.041809	0.017242	0.026245	-0.045319	0.031128	0.58487	-0.021362	0.12253	-0.011139	0.023193	0.038605	-0.17303	0.01297	0.06073	0.12817	2.3621	0.40604	0.22308	-0.029602	-0.58258	-0.9079	0.10635	-0.007782	0.099945	-0.000458	-0.83496	0.009003	0.001221	-0.003357
51.831	0.008392	0.015411	0.15457	0.069733	0.015717	0.011749	-0.046997	0.02655	0.48401	-0.019684	0.10696	-0.02182	0.018158	0.010681	-0.21378	0	0.050507	0.086517	0.54275	0.4216	0.22995	-0.009766	-0.15961	-0.73608	-0.18494	-0.00473	0.18417	-0.00351	-0.77682	-0.020142	-0.004578	-0.012817
51.832	0.006866	-0.02243	0.14481	0.076599	0.022736	0.029297	-0.038605	0.039978	0.25299	0.00351	0.049896	-0.005646	0.00351	-0.037384	-0.25314	-0.006104	0.039368	0.028992	-0.77972	0.3038	0.12955	0.041962	0.079651	-0.1889	0.12268	0.003967	-0.018463	-0.000763	1.3786	-0.065308	-0.001831	-0.00885
51.833	0.007935	-0.006256	0.14969	0.055542	0.016022	0.045776	0.007782	0.027771	-0.015259	-0.045319	-0.061188	-0.012665	0.039825	-0.012054	-0.16281	0.001831	0.025482	0.077362	-0.15442	0.15442	0.12528	0.07782	-0.000153	0.23178	0.3952	0.010071	-0.14938	-0.001373	0.94955	-0.13351	0.000763	-0.011139
51.834	0.001831	-0.005341	0.12054	-0.043945	0.008698	0.037384	0.04303	0.024109	-0.10071	0.010834	-0.076599	-0.010681	0.036926	0.014648	-0.023804	-0.001373	0.029144	0.062866	0.46814	0.058899	0.112	0.18158	0.12451	0.38925	0.354	0.003357	0.067291	0.000458	-1.7081	-0.14252	-0.001678	-0.015564
51.835	0.005188	-0.025024	0.076752	-0.044403	0.018463	0.028839	0.0914	0.020905	-0.15198	0.003204	0.071106	-0.005798	-0.006561	0.016632	0.032959	0.010376	-0.021362	-0.048676	0.36468	0.046387	0.072632	0.12329	0.35385	0.50858	0.27893	0.001221	0.046082	-0.005341	-0.56381	-0.093994	-0.002289	-0.016785
51.836	0.005798	-0.00412	0.054169	-0.007019	0.017853	0.014038	0.080719	0.014343	-0.19394	0.011444	0.047607	-0.005188	-0.003662	0.015564	0.052643	0.002289	-0.062561	-0.11017	0.075378	-0.010834	-0.1831	0.11124	0.40237	0.80826	-0.042419	-0.000916	-0.12421	-0.016022	0.72479	-0.004272	-0.001678	-0.008545
51.837	0.003815	0.008392	0.058441	-0.015259	0.017853	0.02243	0.072784	0.014648	-0.24475	-0.00351	0.081635	-0.013275	0.019684	0.035706	0.16739	-0.000153	-0.092468	-0.093231	0.3093	-0.092468	-0.29968	0.09491	0.48904	1.0406	-0.25482	-0.006714	-0.072327	-0.008392	0.45364	0.036469	-0.001373	-0.010681
51.838	0.011292	0.004425	0.081787	-0.021362	0.014801	0.015869	0.055847	0.009613	-0.39215	-0.019379	0.0737	-0.008545	0.028381	0.005646	0.13962	0.003815	-0.11948	-0.088654	0.53863	-0.14236	-0.047913	0.036011	0.19424	0.48508	0.047913	-0.003052	0.002594	-0.005798	-0.28473	-0.023193	-0.003357	-0.010681
51.839	0.011597	-0.007324	0.054169	-0.002899	0.019531	0.005493	0.020294	0.009003	-0.51514	-0.027008	-0.039673	-0.000763	0.072632	-0.022278	0.062561	0.005035	-0.11902	-0.090485	0.159	-0.22324	0.092468	-0.012512	-0.47104	0.29602	0.29602	0.001373	0.047455	-0.005951	-0.2652	0.037537	-0.002747	-0.015106
51.84	0.012054	0.007935	0.020294	-0.001526	0.019989	-0.009766	-0.020599	0.015564	-0.58548	-0.054321	-0.028076	-0.003052	0.12299	-0.030518	0.044098	0.010223	-0.099487	-0.087585	-0.20889	-0.10315	0.19669	-0.051117	-0.7103	0.21729	0.85083	0.001068	-0.000153	-0.009155	0.045471	0.028076	-0.000305	-0.004272
51.841	0.009155	-0.014496	0.02594	0.004578	0.015717	-0.004425	-0.067291	0.020752	-0.51727	-0.036926	0.072174	-0.011292	0.070496	-0.01709	0.11627	0.009766	-0.072479	0.046997	-0.40543	0.02243	0.053558	0.002594	-0.7608	-0.074768	0.74173	0	-0.034485	-0.005951	0.081635	0.06958	0	-0.014191
51.842	0.006561	-0.028839	0.0177	0.02243	0.019531	-0.002899	-0.054626	0.016632	-0.33417	-0.003357	0.036011	-0.001373	-0.000763	-0.00473	0.14877	-0.004425	-0.08728	0.18265	-0.79086	0.055542	-0.017395	0.11688	-0.96741	-0.20432	0.006409	-0.001526	0.009613	-0.00412	-0.061188	0.005035	-0.003204	-0.011749
51.843	0.017548	-0.037842	0.021667	0.019073	0.017395	0.006866	-0.019226	0.015106	-0.039978	-0.000458	-0.077972	-0.006866	-0.013428	0.008087	0.021362	0.003052	-0.081482	0.112	-0.78812	-0.076904	0.021515	0.067444	-0.87463	-0.028076	-0.71426	-0.011597	0.006714	-0.002136	-0.18662	0.005646	-0.000153	-0.006104
51.844	0.012207	-0.054779	0.006409	0.000763	0.0177	0.010529	0.016479	0.015411	0.069427	0.002747	-0.14633	-0.008087	0.011597	-0.064545	-0.1535	-0.006104	-0.082245	-0.063629	-0.62698	-0.18433	0.063324	-0.015259	-0.5011	-0.32959	-1.0272	-0.009613	-0.062714	0	-0.067749	0.033264	0	-0.005798
51.845	0.015564	-0.037689	-0.005951	0.007172	0.014954	0.041656	0.023041	0.013733	0.007019	0.007935	-0.11536	-0.007629	-0.00412	-0.043945	-0.040741	0.003967	-0.068817	0.003357	0.057068	-0.22385	0.012054	-0.029144	0.10727	-0.19409	-0.95367	0.000153	-0.075531	-0.000153	-0.16281	-0.020599	-0.000763	-0.022736
51.846	0.015106	-0.045319	-0.018616	-0.006256	0.017853	0.065613	0.037537	0.02655	-0.16495	0.003204	-0.02533	-0.005188	-0.031281	-0.00351	0.22369	0.002747	-0.082245	0.023041	-0.15198	-0.11917	0.000153	-0.018921	0.47638	-0.056763	-0.8255	-0.00061	-0.027161	-0.003357	-0.37384	-0.053253	-0.006256	-0.019073
51.847	0.018616	-0.019684	0.065613	-0.007935	0.018005	0.097351	0.011139	0.022278	-0.15732	0.005035	0.017395	-0.005188	-0.021362	0.045013	0.19836	0.015564	-0.072632	-0.063477	-1.115	0.097961	-0.014954	-0.000763	0.55359	0.32471	-0.63843	-0.007019	0.024567	-0.009918	-0.35797	-0.040741	-0.002136	-0.016937
51.848	0.010376	-0.033264	0.016022	0.006409	0.005188	0.10986	0.00824	0.02594	-0.015564	-0.018158	0.062103	-0.003204	0.00473	0.058441	0.034943	0.009003	-0.045166	-0.085907	-1.962	0.11383	-0.024414	-0.026245	0.45441	0.70816	-0.32303	-0.000153	0.049896	-0.007477	-0.16892	-0.011292	0.000153	-0.016022
51.849	0.015717	-0.040894	-0.001831	0.022278	0.010681	0.079651	0.025482	0.019989	0.10468	-0.02655	0.031586	-0.005646	0.003662	0.039215	0.049286	0.011139	-0.02655	-0.024872	-2.6021	0.25238	-0.059509	-0.064545	0.26977	0.75226	0.1709	-0.010223	0.065613	-0.009155	0.11261	-0.036011	-0.000458	-0.036011
51.85	0.010681	-0.051575	0.010223	0.020599	0.010529	0.059662	0.029449	0.019836	0.086212	-0.009918	-0.058136	-0.00824	-0.01236	0.002441	-0.029907	0.009766	0.03006	0.13077	-1.5735	0.30579	-0.033569	-0.073547	0.33661	0.45807	0.50491	-0.006714	-0.02243	-0.014496	0.24033	-0.074921	-0.007477	-0.0354
51.851	0.014191	-0.029144	-0.038147	0.005951	0.011749	0.034027	-0.005341	0.011749	-0.020905	0.00473	-0.10574	-0.005188	-0.0177	-0.032501	-0.078278	0.011139	0.047455	0.22507	-0.027618	0.22705	0.018463	-0.10086	0.30792	0.42511	0.76492	-0.004272	-0.13184	-0.011902	0.18234	-0.034332	-0.005493	-0.030212
51.852	0.007019	-0.024872	-0.07309	-0.011444	0.019073	0.011444	-0.010681	0.017395	0.35934	0.011902	-0.099182	0.000916	-0.059967	-0.051727	-0.15564	0.004578	0.030823	0.16281	1.628	0.067596	0.065765	-0.084991	0.29434	0.27023	0.63355	-0.005493	-0.052948	-0.011292	0.14999	-0.032806	-0.018921	-0.022583
51.853	0.004425	-0.031891	-0.074463	-0.01709	0.020905	-0.008698	0.004425	0.006256	0.51895	0.01236	-0.075378	-0.002289	-0.046387	-0.050812	-0.09491	0.005341	0.036011	0.17181	2.2723	-0.000458	0.037079	-0.072479	-0.10391	-0.24262	0.39764	0.00351	-0.047302	-0.014343	0.57663	-0.031433	-0.007172	-0.044403
51.854	0.005646	-0.039063	0.012207	-0.016022	0.024872	-0.012054	0.019989	0.01709	0.44617	0.011749	-0.057678	-0.009766	-0.037384	-0.079193	0.086975	0.00885	0.030365	0.063782	1.5498	-0.023651	-0.06897	-0.043182	-0.2977	-0.48263	0.2063	0.001068	-0.10696	-0.013428	0.30853	0.014954	-0.002747	-0.0383
51.855	-0.001373	-0.046539	-0.054016	-0.026398	0.024719	-0.027161	0.035858	0.013428	0.16312	-0.005646	0.071716	-0.001678	0.001678	-0.067902	0.051117	0.007629	0.076752	-0.007782	0.4744	-0.005188	-0.16312	-0.0383	-0.22934	-0.19516	-0.069733	0.003052	-0.12741	-0.012512	0.035858	0.023499	-0.00351	-0.032349
51.856	-0.008698	0.00473	0.10773	-0.034943	0.016022	-0.022736	0.026398	0.019379	-0.077209	-0.020905	0.045929	0.004425	0.032654	-0.046539	-0.10712	0.00946	0.11261	0.080109	-0.49194	-0.081482	0.037537	-0.08667	-0.17731	-0.034637	-0.33707	-0.00061	-0.17197	-0.016937	-0.054169	-0.003662	-0.001068	-0.032959
51.857	-0.004578	-0.035706	0.30655	-0.006866	0.023346	-0.038452	0.046997	0.015717	-0.10696	-0.04303	0.018463	0.008545	0.066376	0.063782	0.3038	0.021362	0.1471	0.12741	-0.73639	-0.1059	0.049133	-0.06546	-0.21912	0.24979	-0.21347	-0.001068	-0.044861	-0.010681	-0.35263	-0.014038	-0.004578	-0.051727
51.858	0.000458	-0.055084	0.20187	-0.003815	0.014496	-0.032654	0.049896	0.023499	-0.059509	-0.045471	-0.060577	-0.002441	0.059509	0.083313	0.78384	0.005493	0.14877	0.12863	-0.58273	-0.12802	-0.046234	-0.000916	-0.35889	0.68222	0.050354	-0.004578	-0.020905	-0.00946	-0.17502	-0.039673	-0.003815	-0.040741
51.859	-0.00351	-0.031891	0.10162	0.030823	0.023651	0.000763	0.049133	0.019226	0.001526	-0.045319	0.074768	0.003815	0.03479	0.063019	-0.28717	-0.005493	0.14557	0.13107	0.74814	-0.087891	-0.52139	0.039215	-0.15518	1.1259	0.12009	-0.006104	-0.051727	0.002136	0.11292	-0.057068	-0.005188	-0.042877
51.86	0.001526	-0.049744	0.074768	0.013275	0.019836	0.005646	-0.007324	0.024719	-0.021973	-0.019531	0.18967	0.003204	-0.033569	0.054932	-0.35339	0.000763	0.13702	0.03952	0.46707	-0.067444	-0.16815	-0.0914	0.12634	1.2508	0.18372	-0.008698	-0.10666	-0.007629	0.069733	-0.10178	-0.001831	-0.023956
51.861	-0.000916	-0.077362	0.057373	0.023804	0.020447	0.04425	-0.010529	0.016785	-0.093079	-0.002899	0.02655	0.00061	-0.068054	0.060883	-0.35294	0.001831	0.11185	-0.088654	-0.49179	-0.045319	0.23895	-0.10223	0.2269	1.237	-0.037079	-0.010681	0.084381	-0.006561	-0.44556	-0.043793	-0.002441	-0.037079
51.862	0.000305	-0.021973	0.075684	0.015106	0.018158	0.032654	-0.054016	0.013733	-0.12207	-0.016327	-0.16724	0.001984	0.029907	0.018158	-0.30258	0.005646	0.008392	0.036163	-0.27832	-0.049896	0.18066	0.15549	0.23132	1.2271	-0.48935	-0.013123	0.17822	-0.007629	-0.66864	-0.043488	-0.002899	-0.04364
